<svg xmlns="http://www.w3.org/2000/svg" width="1024" height="1024" viewBox="0 0 1024 1024">
  <defs>
    <linearGradient id="bg" x1="0" y1="0" x2="1" y2="1">
      <stop offset="0" stop-color="#d9713f"/>
      <stop offset="1" stop-color="#a7411b"/>
    </linearGradient>
    <linearGradient id="shine" x1="0" y1="0" x2="0" y2="1">
      <stop offset="0" stop-color="#ffffff" stop-opacity="0.16"/>
      <stop offset="0.5" stop-color="#ffffff" stop-opacity="0"/>
    </linearGradient>
  </defs>

  <!-- Tile -->
  <rect x="64" y="64" width="896" height="896" rx="208" fill="url(#bg)"/>
  <rect x="64" y="64" width="896" height="896" rx="208" fill="url(#shine)"/>

  <!-- Books -->
  <g>
    <rect x="248" y="316" width="112" height="410" rx="16" fill="#fff5ec"/>
    <rect x="248" y="366" width="112" height="14" fill="#a7411b" opacity="0.28"/>
    <rect x="248" y="660" width="112" height="14" fill="#a7411b" opacity="0.28"/>

    <rect x="378" y="396" width="96" height="330" rx="16" fill="#f4c7aa"/>
    <rect x="378" y="436" width="96" height="12" fill="#7d2d10" opacity="0.25"/>

    <rect x="492" y="346" width="112" height="380" rx="16" fill="#ffe4d1"/>
    <rect x="522" y="396" width="52" height="52" rx="26" fill="#a7411b" opacity="0.30"/>

    <g transform="translate(-14 0) rotate(-16 792 726)">
      <rect x="700" y="396" width="92" height="330" rx="16" fill="#fff5ec"/>
      <rect x="700" y="446" width="92" height="12" fill="#a7411b" opacity="0.28"/>
      <rect x="700" y="662" width="92" height="12" fill="#a7411b" opacity="0.28"/>
    </g>
  </g>

  <!-- Shelf -->
  <rect x="200" y="718" width="624" height="44" rx="22" fill="#fff5ec"/>
</svg>
